<svg width="195" height="48" viewBox="0 0 195 48" fill="none" xmlns="http://www.w3.org/2000/svg">
    <g clip-path="url(#clip0_11477_637)">
        <path
            d="M14.0152 14.4001C14.0152 13.1479 13.3891 12.4175 12.0326 12.4175H2.95436C1.70218 12.4175 0.971748 11.6871 0.971748 10.4349V3.13056C0.971748 1.87838 1.70218 1.14795 2.95436 1.14795H36.3457C37.5978 1.14795 38.3283 1.77404 38.3283 3.13056V10.4349C38.3283 11.6871 37.7022 12.4175 36.3457 12.4175H27.1631C25.9109 12.4175 25.1804 13.0436 25.1804 14.4001V44.8697C25.1804 46.1219 24.5544 46.8523 23.1978 46.8523H15.8935C14.6413 46.8523 13.9109 46.1219 13.9109 44.8697L14.0152 14.4001Z"
            fill="#344054" />
        <path
            d="M73.5978 32.1391C73.5978 36.4174 72.6587 48 57.2152 48C41.7717 48 40.8326 36.4174 40.8326 32.1391V15.8609C40.8326 11.5826 41.7717 0 57.2152 0C72.6587 0 73.5978 11.5826 73.5978 15.8609V32.1391ZM62.4326 19.3043C62.4326 14.2957 62.1196 11.2696 57.3196 11.2696C52.5196 11.2696 52.1022 14.2957 52.1022 19.3043V28.6957C52.1022 33.7043 52.4152 36.8348 57.2152 36.8348C62.0152 36.8348 62.3283 33.8087 62.3283 28.6957V19.3043H62.4326Z"
            fill="#344054" />
        <path
            d="M95.1978 1.14795C107.511 1.14795 112.102 6.15664 112.102 16.8001C112.102 18.9914 111.476 23.2697 108.763 26.2958C111.476 27.5479 113.354 30.7827 113.354 34.8523C113.354 42.9914 109.807 46.8523 97.4935 46.8523H81.4239C80.1718 46.8523 79.4413 46.1219 79.4413 44.8697V3.23491C79.4413 1.98273 80.0674 1.2523 81.4239 1.2523C81.4239 1.14795 95.1978 1.14795 95.1978 1.14795ZM96.7631 37.5653C99.8935 37.5653 101.459 37.2523 101.459 34.2262C101.459 31.2001 99.9978 30.6784 96.8674 30.6784H92.5891C91.337 30.6784 90.6065 31.3045 90.6065 32.661V35.6871C90.6065 36.9393 91.337 37.6697 92.5891 37.6697C92.5891 37.5653 96.7631 37.5653 96.7631 37.5653ZM96.2413 21.2871C99.3718 21.2871 100.937 20.8697 100.937 16.9045C100.937 12.9393 99.3718 12.5219 96.2413 12.5219H92.6935C91.4413 12.5219 90.7109 13.1479 90.7109 14.5045V19.5132C90.7109 20.7653 91.4413 21.4958 92.6935 21.4958L96.2413 21.2871Z"
            fill="#344054" />
        <path
            d="M126.815 1.14795C128.067 1.14795 128.798 1.77404 128.798 3.13056V44.8697C128.798 46.1219 128.172 46.8523 126.815 46.8523H119.615C118.363 46.8523 117.633 46.1219 117.633 44.8697V3.13056C117.633 1.87838 118.363 1.14795 119.615 1.14795H126.815Z"
            fill="#344054" />
        <path
            d="M191.302 35.3741L191.72 35.8958C189.32 42.9915 182.537 48.0002 174.607 48.0002H160.311C154.989 48.0002 150.398 45.3915 147.58 41.3219C149.041 42.8871 151.128 43.9306 153.424 43.9306H174.502C180.346 43.9306 185.25 39.7567 186.293 34.0176L188.485 34.1219C189.633 34.2263 190.572 34.6437 191.302 35.3741Z"
            fill="#00E9DB" />
        <path
            d="M181.702 0H161.354C160.728 0 160.102 0 159.476 0.104348C157.702 0.208696 156.033 0.626087 154.467 1.35652L154.572 1.14783C148.415 -2.08696 139.859 2.81739 139.859 2.81739C144.241 3.44348 146.746 7.2 147.685 9.28696C147.58 9.80869 147.372 10.3304 147.372 10.9565L144.241 31.9304C143.928 34.0174 144.45 36 145.598 37.5652C145.702 37.6696 145.702 37.7739 145.807 37.7739C147.267 39.6522 149.459 40.8 151.963 40.8H172.311C177.007 40.8 181.18 37.9826 182.954 33.7043L177.528 33.3913C176.172 33.287 174.92 32.3478 174.502 31.0957C174.398 30.887 174.398 30.5739 174.293 30.3652C174.293 30.1565 174.189 29.8435 174.189 29.6348C174.189 28.9043 174.293 28.2783 174.502 27.5478C174.607 27.2348 174.711 26.9217 174.815 26.6087C174.92 26.2957 175.024 25.9826 175.233 25.6696C175.859 24.2087 177.111 22.6435 178.572 22.3304C180.659 22.0174 182.85 21.8087 184.728 21.8087L186.711 6.78261C186.92 4.8 186.189 2.92174 184.833 1.66957C187.859 2.4 189.946 5.21739 189.528 8.45217L187.859 21.8087C188.589 21.8087 189.32 21.913 189.841 21.913C191.302 22.0174 192.45 22.8522 193.285 23.8957L194.224 13.6696C194.954 6.36522 189.111 0 181.702 0ZM153.737 17.5304C152.589 17.5304 151.546 16.5913 151.546 15.3391C151.546 14.087 152.485 13.1478 153.737 13.1478C154.989 13.1478 155.928 14.087 155.928 15.3391C155.928 16.5913 154.989 17.5304 153.737 17.5304ZM173.146 20.3478C169.076 22.3304 164.485 22.3304 160.52 20.3478H160.415C159.998 20.1391 159.685 19.6174 159.685 19.0957C159.685 18.3652 160.311 17.7391 161.041 17.7391H172.624C173.354 17.7391 173.98 18.3652 173.98 19.0957C173.876 19.6174 173.563 20.0348 173.146 20.3478ZM180.033 17.0087C178.885 17.0087 177.841 16.0696 177.841 14.8174C177.841 13.5652 178.78 12.6261 180.033 12.6261C181.285 12.6261 182.224 13.5652 182.224 14.8174C182.224 16.0696 181.285 17.0087 180.033 17.0087Z"
            fill="#00E9DB" />
    </g>
    <defs>
        <clipPath id="clip0_11477_637">
            <rect width="193.357" height="48" fill="white" transform="translate(0.971741)" />
        </clipPath>
    </defs>
</svg>