<svg width="33" height="33" viewBox="0 0 33 33" fill="none" xmlns="http://www.w3.org/2000/svg" class=""><path d="M28.288 16.645h-4a2 2 0 0 0-2 2v5a2 2 0 0 0 2 2h2a2 2 0 0 0 2-2v-7Zm0 0a12.001 12.001 0 0 0-12.1-12 12 12 0 0 0-12.088 12v7a2 2 0 0 0 2 2h2a2 2 0 0 0 2-2v-5a2 2 0 0 0-2-2h-4" stroke="#19191A" stroke-width="2" stroke-linecap="round" stroke-linejoin="round"></path><path d="M28.288 23.645v3a4 4 0 0 1-4 4H17.1" stroke="#19191A" stroke-width="2" stroke-linecap="round" stroke-linejoin="round"></path></svg>