<svg xmlns="http://www.w3.org/2000/svg" viewBox="0 0 466.02 156.53">
    <defs>
        <style>
            .cls-1 {
                font-size: 38.35px;
                font-family: SVN-Aptima;
                letter-spacing: 0.05em;
            }

            .cls-1,
            .cls-3 {
                fill: #a80f29;
            }

            .cls-2 {
                font-size: 49.43px;
                letter-spacing: 0.05em;
            }
        </style>
    </defs>
    <g id="Layer_2" data-name="Layer 2">
        <g id="Layer_1-2" data-name="Layer 1"><text class="cls-1" transform="translate(224.03 69.36)">THE WORLD<tspan
                    class="cls-2">
                    <tspan x="0" y="59.32">PERFUME</tspan>
                </tspan></text>
            <path class="cls-3"
                d="M94.52,38.23A211.16,211.16,0,0,0,54,53.12c-12.86,6.36-25.18,14.09-35.33,24-5,5-9.47,10.59-12.16,16.89a26.15,26.15,0,0,0-2.22,9.73,18.76,18.76,0,0,0,2.25,9.37c3.13,5.76,9.07,9.77,15.39,12.46a76.06,76.06,0,0,0,20.34,5.08,154.66,154.66,0,0,0,42.56-1.44,207.07,207.07,0,0,0,20.94-4.55,172.2,172.2,0,0,0,20.25-7,150.31,150.31,0,0,0,36.93-21.57,111.11,111.11,0,0,0,15.44-14.92,77.51,77.51,0,0,0,6.33-8.72,55.15,55.15,0,0,0,4.89-9.63,62.71,62.71,0,0,1-10.11,19.22,106,106,0,0,1-14.9,16,145.57,145.57,0,0,1-37,23.31,176.23,176.23,0,0,1-42,12.42c-14.42,2.37-29.21,3.39-43.9,1.55a80.82,80.82,0,0,1-21.59-5.53,43.67,43.67,0,0,1-9.86-5.74,28,28,0,0,1-7.58-8.91A23.2,23.2,0,0,1,0,103.66,30.23,30.23,0,0,1,2.73,92.41c3.15-7,8.08-12.77,13.41-17.85A108.59,108.59,0,0,1,33.67,61.29,155.84,155.84,0,0,1,53,51.13,194,194,0,0,1,94.52,38.23Z" />
            <path class="cls-3"
                d="M177.22,21.78c-11.45-8.27-25.46-8.27-56.87-8.06H93.83L88.89,36.94c2.19-.54,4.39-1,6.58-1.52,2-.42,4-.81,6.08-1.17l3.73-17.56c41.6,0,49-.85,59.85,5.51,7.7,4.63,11.88,12,12.93,20.4.12.95.2,1.92.23,2.9a39.61,39.61,0,0,1-1.07,10.66.19.19,0,0,0,0,.08,18.46,18.46,0,0,1-10.46,12.35,36.49,36.49,0,0,1-9.82,2.83,23.31,23.31,0,0,1-6.11-.21,56.87,56.87,0,0,1-6.2-1.47c-4.13-1.19-8.24-2.65-12.47-3.84a61.26,61.26,0,0,0-6.44-1.47l-1.66-.2-.83-.1-.84,0-1.67,0-1.68.12a28.2,28.2,0,0,0-6.47,1.5c-1,.32-2.06.78-3.08,1.18s-2,.88-3,1.38c-3.92,1.92-7.64,4.21-11.45,6.26-.76.4-1.53.8-2.3,1.17L101,36.81c-1.84.34-3.69.7-5.53,1.09-2.37.51-4.76,1.05-7.13,1.65l-24.85,117H75.58L88.1,96.69,89,93.5l3.7-17.42c.89-.38,1.74-.79,2.6-1.21,3.9-1.93,7.68-4.09,11.63-5.85,1-.46,2-.85,3-1.26s2-.77,3-1.05a27,27,0,0,1,6.24-1.23l1.57-.06,1.58.1.79.06.79.12,1.57.25a59.22,59.22,0,0,1,6.21,1.65c4.1,1.3,8.14,2.89,12.31,4.25a56.85,56.85,0,0,0,6.43,1.74,25.21,25.21,0,0,0,6.86.46,40.19,40.19,0,0,0,12.95-3.68c.45-.22.89-.44,1.34-.68l0,0c.58-.45,1.17-.88,1.73-1.34a58.05,58.05,0,0,0,11.08-12.11c.54-.77,1.06-1.57,1.54-2.38.29-.46.58-.93.84-1.4.65-1.1,1.25-2.22,1.84-3.37a14.83,14.83,0,0,0,1.67-6.59A30.25,30.25,0,0,0,177.22,21.78Z" />
            <path class="cls-3" d="M93.72,15.1H78.62L81.41,2.58A3.29,3.29,0,0,1,84.63,0H93a3.3,3.3,0,0,1,3.22,4Z" />
        </g>
    </g>
</svg>