<svg width="33" height="33" viewBox="0 0 33 33" fill="none" xmlns="http://www.w3.org/2000/svg" class="w-8 h-8 text-black"><path d="M22.7 10.646h5.325a.987.987 0 0 1 .925.624l1.75 4.376M2.7 18.645h20" stroke="currentColor" stroke-width="2" stroke-linecap="round" stroke-linejoin="round"></path><path d="M24.2 27.645a3 3 0 1 0 0-6 3 3 0 0 0 0 6ZM9.2 27.645a3 3 0 1 0 0-6 3 3 0 0 0 0 6Z" stroke="currentColor" stroke-width="2" stroke-miterlimit="10"></path><path d="M21.2 24.645h-9M6.2 24.645H3.7a1 1 0 0 1-1-1v-14a1 1 0 0 1 1-1h19v13.4M22.7 15.646h8v8a1 1 0 0 1-1 1h-2.5" stroke="currentColor" stroke-width="2" stroke-linecap="round" stroke-linejoin="round"></path></svg>