<svg width="40" height="40" viewBox="0 0 40 40" fill="none" xmlns="http://www.w3.org/2000/svg">
    <rect width="40" height="40" rx="4" fill="#1D2939" />
    <path
        d="M29.5 26L22.8571 20M17.1429 20L10.5 26M10 15L18.1649 20.7154C18.8261 21.1783 19.1567 21.4097 19.5163 21.4993C19.8339 21.5785 20.1661 21.5785 20.4837 21.4993C20.8433 21.4097 21.1739 21.1783 21.8351 20.7154L30 15M14.8 28H25.2C26.8802 28 27.7202 28 28.362 27.673C28.9265 27.3854 29.3854 26.9265 29.673 26.362C30 25.7202 30 24.8802 30 23.2V16.8C30 15.1198 30 14.2798 29.673 13.638C29.3854 13.0735 28.9265 12.6146 28.362 12.327C27.7202 12 26.8802 12 25.2 12H14.8C13.1198 12 12.2798 12 11.638 12.327C11.0735 12.6146 10.6146 13.0735 10.327 13.638C10 14.2798 10 15.1198 10 16.8V23.2C10 24.8802 10 25.7202 10.327 26.362C10.6146 26.9265 11.0735 27.3854 11.638 27.673C12.2798 28 13.1198 28 14.8 28Z"
        stroke="#FFC82D" stroke-width="1.5" stroke-linecap="round" stroke-linejoin="round" />
</svg>